<?xml version="1.0" standalone="no"?>
<!DOCTYPE svg PUBLIC "-//W3C//DTD SVG 20010904//EN"
 "http://www.w3.org/TR/2001/REC-SVG-20010904/DTD/svg10.dtd">
<svg version="1.0" xmlns="http://www.w3.org/2000/svg"
 width="700.000000pt" height="700.000000pt" viewBox="0 0 700.000000 700.000000"
 preserveAspectRatio="xMidYMid meet">
<metadata>
Created by potrace 1.11, written by Peter Selinger 2001-2013
</metadata>
<g transform="translate(0.000000,700.000000) scale(0.100000,-0.100000)"
fill="#000000" stroke="none">
<path d="M3155 6904 c-518 -57 -1025 -226 -1507 -500 -201 -114 -413 -257
-511 -344 -5 -4 5 -74 22 -156 57 -289 105 -637 132 -984 19 -232 16 -770 -4
-958 -60 -533 -228 -1138 -459 -1648 l-59 -132 36 -98 c60 -162 190 -414 295
-572 122 -183 202 -282 351 -437 492 -508 1137 -839 1885 -965 149 -25 178
-25 328 1 601 101 1140 336 1586 690 125 99 389 360 484 479 178 223 370 558
461 804 l37 99 -38 76 c-138 284 -313 803 -392 1166 -84 382 -105 594 -105
1025 0 504 45 961 144 1454 17 81 29 149 27 150 -2 2 -34 28 -73 58 -207 164
-516 347 -805 475 -390 175 -758 275 -1160 318 -166 18 -511 18 -675 -1z
m-525 -1989 l0 -945 318 -2 317 -3 3 -127 3 -128 -461 0 -460 0 0 1075 0 1075
140 0 140 0 0 -945z m1851 909 c71 -34 104 -68 141 -150 l23 -49 3 -957 2
-958 -140 0 -140 0 -2 393 -3 392 -165 0 -165 0 -3 -392 -2 -393 -140 0 -140
0 2 953 c3 731 6 961 16 989 34 99 121 176 223 198 24 5 130 8 234 7 l190 -2
66 -31z m-1849 -2981 l3 -458 178 -3 177 -2 0 460 0 460 145 0 145 0 0 -1075
0 -1075 -145 0 -145 0 0 485 0 485 -180 0 -180 0 0 -490 0 -490 -140 0 -140 0
0 1080 0 1080 140 0 140 0 2 -457z m1818 431 c75 -25 140 -90 170 -169 20 -52
24 -84 28 -237 l4 -178 -146 0 -146 0 0 124 c0 67 -5 137 -11 154 -15 44 -52
64 -128 69 -76 5 -127 -15 -148 -57 -16 -31 -19 -1473 -3 -1514 5 -14 20 -32
34 -41 33 -22 121 -30 174 -16 63 17 82 54 82 159 l0 83 143 -3 142 -3 3 -65
c4 -87 -12 -205 -37 -262 -24 -57 -80 -113 -140 -141 -43 -20 -62 -22 -261
-22 l-215 0 -60 30 c-71 36 -117 93 -142 173 -17 52 -18 122 -18 872 l0 815
24 59 c43 108 120 167 239 186 94 15 348 5 412 -16z"/>
<path d="M4089 5585 c-57 -31 -59 -48 -57 -457 l3 -373 165 0 165 0 3 365 c3
404 1 429 -51 460 -40 25 -186 28 -228 5z"/>
</g>
</svg>
