<svg version="1.1" id="Layer_1" xmlns="http://www.w3.org/2000/svg" xmlns:xlink="http://www.w3.org/1999/xlink" x="0px" y="0px"
	 width="512px" height="512px" viewBox="41.64 164.945 512 512" enable-background="new 41.64 164.945 512 512"
	 xml:space="preserve">
<g>
	<path d="M495.624,513.784c-0.33-0.663-31.881-64.957-36.72-134.222c-4.838-69.265,10.771-138.596,10.937-139.193l1.358-5.899
		l-4.573-3.745c-2.982-2.552-74.401-60.151-168.986-60.151s-166.003,57.6-169.02,60.052l-4.54,3.745l1.359,5.8
		c0,0.696,15.841,69.596,10.969,139.193c-4.872,69.099-36.455,133.558-36.753,134.221l-1.723,3.314l1.16,3.745
		c8.974,25.146,22.575,48.393,40.101,68.535c26.877,31.186,75.993,70.624,157.288,81.395h1.16h1.16
		c81.295-10.771,130.41-50.209,157.288-81.395c17.525-20.143,31.127-43.389,40.1-68.535l1.16-3.745L495.624,513.784z"/>
	<path fill="#FFD05B" d="M280.539,405.876h-67.277v-157.52h21.078v138.43h46.199V405.876z"/>
	<path fill="#FFD05B" d="M336.813,405.876h-21.045V275.333c0-17.984,8.407-26.977,25.221-26.977h15.774
		c16.836,0,25.254,8.992,25.254,26.977v130.543H360.94v-57.699h-24.127V405.876z M360.94,329.122v-52.496
		c0.63-4.458-2.474-8.583-6.933-9.213c-0.757-0.107-1.524-0.107-2.281,0h-5.7c-4.458-0.63-8.583,2.473-9.213,6.932
		c-0.107,0.757-0.107,1.524,0,2.281v52.462L360.94,329.122z"/>
	<path fill="#FFD05B" d="M260.323,593.289V521.87h-25.982v71.485h-21.078V435.703h21.078v66.912h25.982v-66.912h21.044v157.486
		L260.323,593.289z"/>
	<path fill="#FFD05B" d="M381.553,556.437v9.942c0,17.83-8.406,26.745-25.22,26.745h-13.588c-16.836,0-25.243-8.915-25.221-26.745
		V462.548c0-17.83,8.407-26.745,25.221-26.745h13.688c16.835,0,25.242,8.915,25.22,26.745v17.797h-21.144v-16.239
		c0-6.164-3.314-9.213-9.445-9.213h-4.143c-5.567,0-8.352,3.049-8.352,9.213v100.849c0,6.164,2.784,9.213,8.352,9.213h5.236
		c5.567,0,8.352-3.049,8.352-9.213v-8.551L381.553,556.437z"/>
</g>
</svg>