<svg id="Layer_1" data-name="Layer 1" xmlns="http://www.w3.org/2000/svg" viewBox="0 0 160 50"><defs><style>.cls-1{fill:#3a961b;}</style></defs><path class="cls-1" d="M25,0A25,25,0,1,0,50,25,25,25,0,0,0,25,0Zm0,48.26A23.26,23.26,0,1,1,48.26,25,23.26,23.26,0,0,1,25,48.26Z"/><polygon class="cls-1" points="9.56 38.88 11.01 38.88 11.01 36.16 13.43 36.16 13.43 34.88 11.01 34.88 11.01 33.55 13.94 33.55 13.94 32.27 9.56 32.27 9.56 38.88"/><polygon class="cls-1" points="23.52 36.4 23.5 36.4 22.18 32.27 20.15 32.27 20.15 38.79 21.39 38.79 21.39 33.89 21.41 33.89 23.01 38.79 24.02 38.79 25.61 33.89 25.63 33.89 25.63 38.79 26.87 38.79 26.87 32.27 24.84 32.27 23.52 36.4"/><path class="cls-1" d="M29.21,32.27l-1.95,6.52h1.32l.56-1.69h2l.46,1.69H33l-1.94-6.52Zm.19,3.84.72-2.2h0l.71,2.2Z"/><path class="cls-1" d="M38.1,34.25c0-1.52-.86-2-2.58-2H33.41v6.52h1.45V36.37h.8l1.41,2.42h1.57L37,35.9A1.48,1.48,0,0,0,38.1,34.25Zm-2.48.83h-.76V33.55h.75c.69,0,1,0,1,.75S36.31,35.08,35.62,35.08Z"/><rect class="cls-1" x="39.02" y="32.27" width="1.46" height="6.53"/><path class="cls-1" d="M17.9,36.49c0,.74-.35,1.11-1,1.11s-1-.37-1-1.11V32.26H14.39V36.5c0,1.59.82,2.38,2.47,2.38s2.49-.79,2.49-2.38V32.26H17.9Z"/><path class="cls-1" d="M27,26.5s-6.79,1-4.33-5.34c0,0-10.9,2.81-5.82,8.17C19.12,31.73,28.38,30.21,27,26.5Z"/><path class="cls-1" d="M32.55,4.81s-4.94,2.06-4.63,5.11A5.05,5.05,0,0,0,30.22,14S25.29,10.15,32.55,4.81Z"/><path class="cls-1" d="M24.2,20c6,7.52,2.59,9.27,1.88,9.53,1.36-.45,14.15-5,5.1-12.73C21.63,8.68,29.42,5.54,29.42,5.54s-14.79,3.4-6.42,13c.27.31.53.61.77.91a9,9,0,0,0-4.33,2.42A12.11,12.11,0,0,1,24.2,20Z"/><path class="cls-1" d="M26.08,29.53l-.12,0Z"/><path class="cls-1" d="M62.64,11.82a4.34,4.34,0,0,0-1.31-1,3.71,3.71,0,0,0-1.66-.37H54.14v13h2.54V19.11h3.08a3.76,3.76,0,0,0,1.65-.36,4.05,4.05,0,0,0,1.29-1,4.36,4.36,0,0,0,.82-1.38,4.46,4.46,0,0,0,.3-1.61,4.34,4.34,0,0,0-.31-1.57A4.66,4.66,0,0,0,62.64,11.82Zm-1.86,4.5a1.45,1.45,0,0,1-1.17.57H56.68V12.67H59.5a1.74,1.74,0,0,1,.66.14,1.59,1.59,0,0,1,.56.41,2.17,2.17,0,0,1,.38.67,2.48,2.48,0,0,1,.15.89A2.36,2.36,0,0,1,60.78,16.32Z"/><path class="cls-1" d="M74.86,17.08a4.35,4.35,0,0,0,.63-2.3,4.14,4.14,0,0,0-.31-1.57A4.52,4.52,0,0,0,73,10.82a3.75,3.75,0,0,0-1.67-.37H65.58v13h2.53V19.11h2.5l2.66,4.37h2.85l-3-4.9A3.58,3.58,0,0,0,74.86,17.08Zm-2-1.47a2.14,2.14,0,0,1-.35.67,1.6,1.6,0,0,1-.52.45,1.33,1.33,0,0,1-.65.16H68.11V12.67h3.07a1.39,1.39,0,0,1,.65.16,1.82,1.82,0,0,1,.57.44,1.94,1.94,0,0,1,.39.67,2.24,2.24,0,0,1,.15.84A2.53,2.53,0,0,1,72.81,15.61Z"/><path class="cls-1" d="M88,12.45a6.43,6.43,0,0,0-2-1.52,5.74,5.74,0,0,0-2.57-.57,6.09,6.09,0,0,0-2.56.54,6.31,6.31,0,0,0-2,1.46,6.92,6.92,0,0,0-1.35,2.11,6.85,6.85,0,0,0,1.27,7.06,6.43,6.43,0,0,0,2,1.48,5.86,5.86,0,0,0,2.6.56A6,6,0,0,0,85.9,23a6.28,6.28,0,0,0,2-1.45,6.75,6.75,0,0,0,1.32-2.09,6.65,6.65,0,0,0,0-4.91A6.76,6.76,0,0,0,88,12.45Zm-1.06,6.1A4.5,4.5,0,0,1,86.19,20,3.87,3.87,0,0,1,85,21a3.4,3.4,0,0,1-1.62.37A3.5,3.5,0,0,1,81.76,21a3.66,3.66,0,0,1-1.19-1,4.22,4.22,0,0,1-.74-1.39A5,5,0,0,1,79.57,17a5.08,5.08,0,0,1,.25-1.59,4.33,4.33,0,0,1,.72-1.4,3.69,3.69,0,0,1,1.19-1,3.55,3.55,0,0,1,4.42.95,4.65,4.65,0,0,1,.75,1.39,5.12,5.12,0,0,1,0,3.22Z"/><path class="cls-1" d="M100.37,17.09a7.33,7.33,0,0,1-.16,1.57A3.85,3.85,0,0,1,99.68,20a3,3,0,0,1-1,1,3.35,3.35,0,0,1-3,0,2.91,2.91,0,0,1-1-.95,4.05,4.05,0,0,1-.53-1.35A8.25,8.25,0,0,1,94,17.09V10.45H91.48v6.64a9.33,9.33,0,0,0,.31,2.44,5.51,5.51,0,0,0,1,2.07A4.93,4.93,0,0,0,94.54,23a5.93,5.93,0,0,0,2.65.54,6,6,0,0,0,2.59-.51,4.82,4.82,0,0,0,1.77-1.4,5.62,5.62,0,0,0,1-2.05,9.25,9.25,0,0,0,.32-2.52V10.45h-2.51Z"/><path class="cls-1" d="M115,12.36a5.85,5.85,0,0,0-2-1.4,7.1,7.1,0,0,0-2.8-.51h-4.74v13h4.74a7,7,0,0,0,2.65-.47,5.69,5.69,0,0,0,3.33-3.37A7.67,7.67,0,0,0,116.6,17a7.76,7.76,0,0,0-.41-2.53A5.67,5.67,0,0,0,115,12.36Zm-1.19,6.29A3.87,3.87,0,0,1,113,20a3.34,3.34,0,0,1-1.21.91,4,4,0,0,1-1.66.33H108V12.67h2.2a4.07,4.07,0,0,1,1.64.31,3.3,3.3,0,0,1,1.22.88,3.93,3.93,0,0,1,.76,1.36A5.61,5.61,0,0,1,114,17,5.46,5.46,0,0,1,113.79,18.65Z"/><polygon class="cls-1" points="121.11 10.45 118.58 10.45 118.58 23.48 127.76 23.48 127.76 21.26 121.11 21.26 121.11 10.45"/><polygon class="cls-1" points="131.76 16.73 128.55 10.45 125.79 10.45 130.51 18.89 130.51 23.48 133.03 23.48 133.03 18.93 137.76 10.45 135.03 10.45 131.76 16.73"/><path class="cls-1" d="M56.68,35.27h3.09a3.63,3.63,0,0,0,1.65-.37,4.14,4.14,0,0,0,1.29-1,4.42,4.42,0,0,0,.81-4.57A4.66,4.66,0,0,0,62.65,28a4.47,4.47,0,0,0-1.31-1,3.75,3.75,0,0,0-1.67-.37H54.14v13h2.54Zm0-6.45h2.83a1.65,1.65,0,0,1,.65.14,1.51,1.51,0,0,1,.56.41,2.32,2.32,0,0,1,.39.67,2.52,2.52,0,0,1,.14.89,2.39,2.39,0,0,1-.46,1.55,1.46,1.46,0,0,1-1.17.57H56.68Z"/><path class="cls-1" d="M66.11,39.64l1.19-3.25h4.56l1.21,3.25h2.61l-5-13H68.48l-5,13ZM69.6,29.48l1.8,5.13H67.72Z"/><path class="cls-1" d="M79.65,35.27h2.5l2.66,4.37h2.85l-3-4.9a3.63,3.63,0,0,0,1.72-1.5A4.36,4.36,0,0,0,87,30.93a4.18,4.18,0,0,0-.31-1.57A4.52,4.52,0,0,0,84.55,27a3.75,3.75,0,0,0-1.67-.37H77.11v13h2.54Zm0-6.45h3.07a1.42,1.42,0,0,1,.65.16,1.82,1.82,0,0,1,.57.44,2.11,2.11,0,0,1,.39.67,2.32,2.32,0,0,1,.15.84,2.49,2.49,0,0,1-.13.83,2,2,0,0,1-.35.67,1.6,1.6,0,0,1-.52.45,1.34,1.34,0,0,1-.65.17H79.65Z"/><polygon class="cls-1" points="92.2 39.64 94.72 39.64 94.72 28.82 98.89 28.82 98.89 26.6 88.03 26.6 88.03 28.82 92.2 28.82 92.2 39.64"/><polygon class="cls-1" points="111.8 39.64 111.8 26.62 109.27 26.62 109.27 35.16 102.47 26.6 100.5 26.6 100.5 39.64 103.04 39.64 103.04 31.28 109.75 39.64 111.8 39.64"/><polygon class="cls-1" points="123.58 37.42 117.06 37.42 117.06 34.02 122.55 34.02 122.55 31.96 117.06 31.96 117.06 28.82 123.42 28.82 123.42 26.6 114.52 26.6 114.52 39.64 123.58 39.64 123.58 37.42"/><path class="cls-1" d="M128.1,35.27h2.5l2.66,4.37h2.85l-3-4.9a3.66,3.66,0,0,0,1.71-1.5,4.27,4.27,0,0,0,.64-2.31,4.39,4.39,0,0,0-.31-1.57,4.66,4.66,0,0,0-.87-1.39A4.47,4.47,0,0,0,133,27a3.71,3.71,0,0,0-1.66-.37h-5.77v13h2.53Zm0-6.45h3.07a1.39,1.39,0,0,1,.65.16,1.62,1.62,0,0,1,.57.44,2.13,2.13,0,0,1,.4.67,2.55,2.55,0,0,1,.14.84,2.78,2.78,0,0,1-.12.83,2.49,2.49,0,0,1-.35.67,1.74,1.74,0,0,1-.53.45,1.34,1.34,0,0,1-.65.17H128.1Z"/><polygon class="cls-1" points="140.32 34.02 145.81 34.02 145.81 31.96 140.32 31.96 140.32 28.82 146.68 28.82 146.68 26.6 137.78 26.6 137.78 39.64 146.84 39.64 146.84 37.42 140.32 37.42 140.32 34.02"/><path class="cls-1" d="M159.6,30.58a5.69,5.69,0,0,0-3.23-3.47,7.14,7.14,0,0,0-2.8-.51h-4.74v13h4.74a7.19,7.19,0,0,0,2.65-.46,5.92,5.92,0,0,0,2-1.33,5.61,5.61,0,0,0,1.3-2.06A7.63,7.63,0,0,0,160,33.1,7.74,7.74,0,0,0,159.6,30.58Zm-2.41,4.23a4,4,0,0,1-.75,1.37,3.34,3.34,0,0,1-1.21.91,4,4,0,0,1-1.66.33h-2.21v-8.6h2.21a4.24,4.24,0,0,1,1.64.31,3.32,3.32,0,0,1,1.22.89,3.69,3.69,0,0,1,.76,1.36,5.79,5.79,0,0,1,0,3.43Z"/></svg>