<?xml version="1.0" encoding="UTF-8"?>
<svg enable-background="new 0 166.773 595.262 508.235" version="1.1" viewBox="0 166.77 595.26 508.24" xml:space="preserve" xmlns="http://www.w3.org/2000/svg">
	<path d="m546.69 391.18c-0.835 0.472-64.839-21.353-64.839-21.353l-5.629-1.089-0.108-0.636v-1.507c-1.67-45.379 0.279-90.818 5.828-135.89l0.29-2.179-1.579-1.525c-36.478-34.644-122.36-58.792-176.69-58.792s-140.21 24.149-176.61 58.792l-1.58 1.525 0.291 2.179c1.435 10.767 13.763 107.85 0 197.77l-0.163 1.126v8.116c-6.573 0.817-13.728 1.816-14.744 2.052-1.961 0.563-53.836 3.723-54.979 5.92-1.144 2.196-5.211 89.786-5.211 89.786l-5.992 9.261 2.941 4.194 67.744 25.02 11.803 2.706v1.942l0.254 0.327c3.504 4.503 6.899 8.588 10.404 12.51 28.161 31.431 79.691 71.213 165.23 82.18h1.089c85.593-10.985 137.12-50.749 165.23-82.18 28.107-31.43 39.002-60.354 40.854-65.801l0.617-1.815-0.907-1.652c-2.125-3.922-4.231-8.226-6.446-13.183l-0.835-1.815-1.145-5.955 16.196-2.307s23.114-3.141 23.114-4.085 6.41-104.1 5.575-103.64z"/>
	<g fill="#FFD05B">
		<path d="m335.16 208.53c-1.888 2.203-3.765 4.412-5.629 6.627v65.148l5.629 6.954c3.269 0.314 6.537 0.678 9.805 1.089 1.61-1.961 3.227-3.904 4.849-5.829v-39.038c-3.269-0.454-6.519-0.872-9.806-1.235v6.046l3.414 0.381v33.228c-2.487-0.381-4.993-0.727-7.48-1.035v-65.674c2.487 0.254 4.993 0.508 7.48 0.817v10.022c2.143 0.254 4.267 0.545 6.392 0.835v-9.587c-1.616-2.615-3.232-5.193-4.849-7.771-3.268-0.397-6.536-0.76-9.805-0.978z"/>
		<path d="m313.83 255.12c-3.85-16.087-7.687-32.114-11.512-48.08h-0.236c-2.124 0-4.267 0-6.409 0.127v78.929c2.143 0 4.285-0.109 6.409-0.127v-47.989h0.236c3.837 15.966 7.674 31.999 11.512 48.098 2.179 0 4.357 0.146 6.518 0.236v-78.929c-2.16-0.109-4.339-0.182-6.518-0.236v47.971z"/>
		<path d="m358.48 244.5v46.155c5.532 0.932 11.064 2.003 16.596 3.214v-6.754c-3.413-0.763-6.833-1.471-10.259-2.125v-32.683c3.438 0.654 6.857 1.362 10.259 2.125v-6.682c-3.413-0.763-6.827-1.453-10.259-2.106v-26.418c3.438 0.629 6.857 1.332 10.259 2.106v-6.682c-5.447-1.235-11.039-2.306-16.596-3.25v33.1z"/>
		<path d="m190.25 228.2c-1.58 3.014-3.142 6.046-4.721 9.079v65.257c1.579 1.58 3.141 3.196 4.721 4.83 3.462-1.344 6.948-2.614 10.458-3.813l4.775-8.298v-65.238c-1.598-1.816-3.178-3.758-4.775-5.61-3.498 1.197-6.984 2.462-10.458 3.793zm9.078 69.143c-2.578 0.908-5.156 1.815-7.717 2.796v-65.765c2.561-0.962 5.139-1.816 7.717-2.814v65.783z"/>
		<path d="m170.08 236.64c-2.021 0.932-4.001 1.852-5.938 2.76v79.328c5.181-2.53 10.386-4.914 15.615-7.154v-6.464c-3.269 1.38-6.5 2.814-9.732 4.321l0.055-72.791z"/>
		<path d="m404.9 255.96v46.156c5.411 1.755 10.773 3.673 16.088 5.755v-6.736c-3.293-1.283-6.598-2.494-9.914-3.632v-32.882c3.322 1.162 6.627 2.397 9.914 3.631v-6.537c-3.287-1.271-6.592-2.505-9.914-3.631v-26.454c3.329 1.211 6.633 2.421 9.914 3.632v-6.646c-5.326-2.07-10.688-3.989-16.088-5.756v33.1z"/>
		<path d="m274.44 208.17c-2.688 26.63-5.368 53.339-8.044 80.127 2.088-0.254 4.177-0.49 6.282-0.69 0.727-7.263 1.471-14.525 2.197-21.897 1.815-0.182 3.759-0.345 5.629-0.49 0.702 7.178 1.404 14.35 2.106 21.516 2.105-0.145 4.194-0.254 6.3-0.363-2.687-26.292-5.374-52.541-8.062-78.748-2.142 0.145-4.284 0.346-6.408 0.545zm3.63 51.112h-0.89l-1.815 0.164c0.526-6.028 1.035-12.038 1.562-18.048l1.325-0.109c0.509 5.919 1.023 11.845 1.544 17.776l-1.726 0.217z"/>
		<path d="m219.19 218.65c-2.095 2.421-4.17 4.842-6.229 7.263v27.853c2.07 1.598 4.146 3.226 6.229 4.884 2.088-0.581 4.158-1.126 6.246-1.67v32.247c-2.016 0.508-4.031 1.053-6.028 1.616v-14.998c-2.197 0.599-4.376 1.234-6.555 1.815v15.107c2.106 1.525 4.23 3.068 6.337 4.63 2.088-0.581 4.158-1.125 6.246-1.67 2.088-2.687 4.194-5.447 6.282-8.007v-32.938c-2.088-1.507-4.194-3.014-6.282-4.484-2.088 0.526-4.158 1.089-6.246 1.67v-26.636c2.415-0.672 4.812-1.307 7.263-1.925v10.241c2.088-0.526 4.194-1.035 6.282-1.525v-10.24c-2.088-1.816-4.194-3.45-6.282-5.157-2.452 0.616-4.848 1.252-7.263 1.924z"/>
		<path d="m387.94 217.7c-2.07-0.544-4.177-1.089-6.265-1.598v79.255c5.447 1.344 10.895 2.851 16.342 4.485v-6.464c-3.341-1.017-6.719-1.979-10.096-2.887l0.019-72.791z"/>
		<path d="m433.16 233.63c-1.997 0.962-4.013 1.943-6.028 2.959v27.817c2.01 3.05 4.019 6.131 6.028 9.242 1.997 0.872 3.994 1.816 5.991 2.688v32.247c-1.924-0.89-3.849-1.816-5.792-2.615v-14.979c-2.105-0.926-4.212-1.816-6.337-2.688v15.088c2.07 3.014 4.104 6.028 6.138 9.079 1.997 0.872 3.994 1.816 5.991 2.688l5.956-3.631v-33.028c-1.979-2.978-3.977-5.919-5.956-8.861l-5.991-2.669v-26.637c2.306 0.999 4.63 2.034 6.918 3.105v10.259c1.973 0.908 3.952 1.852 5.938 2.833v-10.259c-1.979-3.195-3.959-6.355-5.938-9.514-2.289-0.981-4.613-2.107-6.918-3.124z"/>
	</g>
	<g fill="#FFD05B">
		<path d="m440.31 560.78c-0.853-1.121-1.995-1.987-3.305-2.506l-3.631 2.124c-0.373 0.808-0.297 1.751 0.199 2.487l-39.164 23.023-4.758 2.796c-0.396-0.794-1.184-1.318-2.069-1.38l-3.632 2.143c-0.141 0.981-0.054 1.981 0.254 2.924-0.461-0.038-0.926 0.023-1.361 0.182l-0.472 0.163c-0.707 0.274-1.311 0.764-1.726 1.398-0.711-0.32-1.507-0.403-2.27-0.236-0.822 0.201-1.552 0.675-2.069 1.344-0.686-0.506-1.531-0.744-2.379-0.672-0.842 0.082-1.633 0.439-2.252 1.017-0.592-0.604-1.388-0.966-2.233-1.017-0.841-0.057-1.675 0.181-2.36 0.672-0.507-0.689-1.25-1.167-2.088-1.344-0.829-0.202-1.704-0.105-2.469 0.272-0.377-0.679-0.972-1.21-1.688-1.507l-0.49-0.2c-0.719-0.245-1.498-0.245-2.216 0-0.306-0.682-0.82-1.248-1.471-1.616l-0.436-0.235c-0.677-0.367-1.457-0.495-2.215-0.363-0.244-0.743-0.729-1.383-1.38-1.815-0.71-0.513-1.58-0.751-2.452-0.672-0.111-0.828-0.518-1.589-1.144-2.143-0.669-0.586-1.525-0.915-2.415-0.927-0.017-0.877-0.367-1.714-0.98-2.342-0.591-0.649-1.397-1.062-2.27-1.162 0.053-0.81-0.178-1.612-0.653-2.27l-0.327-0.436c-0.471-0.569-1.104-0.98-1.815-1.181 0.056-0.171 0.092-0.348 0.108-0.526-2e-3 -1.513-0.942-2.866-2.36-3.396-0.108 0-0.182-0.127-0.29-0.163 0.026-0.254 0.026-0.509 0-0.763 9e-3 -0.091 9e-3 -0.182 0-0.272-0.02-0.406-0.111-0.807-0.272-1.18l-0.182-0.418c-0.1-0.189-0.222-0.366-0.363-0.526-0.287-0.451-0.68-0.825-1.144-1.09v-0.146c0.236-0.707 0.236-1.472 0-2.179l-0.109-0.345c-0.263-0.743-0.76-1.38-1.416-1.815 0.101-0.246 0.173-0.502 0.218-0.763 0 0 0-0.2 0.091-0.291 0.072-0.42 0.072-0.851 0-1.271l-0.108-0.418c-0.055-0.177-0.127-0.348-0.219-0.508-0.221-0.562-0.583-1.056-1.053-1.435 7e-3 -0.061 7e-3 -0.121 0-0.182 0.338-0.634 0.466-1.359 0.363-2.07v-0.399c-0.103-0.771-0.469-1.482-1.035-2.016 0.448-0.63 0.684-1.387 0.672-2.16v-0.418c-0.023-0.75-0.306-1.468-0.799-2.033 0.517-0.53 0.854-1.21 0.962-1.943v-0.49c0.095-0.741-0.072-1.492-0.472-2.124 0.599-0.455 1.032-1.092 1.234-1.815l0.146-0.49c0.211-0.721 0.159-1.493-0.146-2.179 0.711-0.412 1.262-1.052 1.562-1.816l0.109-0.235c0.32-0.732 0.391-1.549 0.199-2.324 0.713-0.285 1.309-0.804 1.688-1.471l0.219-0.382c0.395-0.68 0.53-1.479 0.381-2.251 0.802-0.244 1.494-0.757 1.961-1.453l0.146-0.218c0.38-0.564 0.595-1.226 0.617-1.906l-7.1 0.617c-9e-3 0.103-9e-3 0.206 0 0.309-0.96 0.286-1.769 0.938-2.251 1.815-0.477 0.791-0.607 1.743-0.363 2.633-0.818 0.346-1.47 0.998-1.816 1.816l-0.218 0.49c-0.363 0.884-0.363 1.875 0 2.76-0.895 0.471-1.553 1.293-1.815 2.27-0.295 0.975-0.148 2.029 0.399 2.887-0.822 0.599-1.355 1.514-1.471 2.524-0.136 1.028 0.175 2.065 0.854 2.851-0.714 0.739-1.105 1.731-1.09 2.76 0.024 0.268 0.085 0.53 0.182 0.78 0.153 0.606 0.459 1.163 0.89 1.616-0.544 0.734-0.772 1.656-0.635 2.561v0.399c0.072 0.47 0.238 0.921 0.49 1.325 0.105 0.136 0.221 0.263 0.345 0.381 0.139 0.208 0.304 0.397 0.49 0.563-0.448 0.78-0.578 1.704-0.363 2.578l0.091 0.363c0.08 0.288 0.202 0.563 0.363 0.816 0 0.128 0.108 0.291 0.182 0.418 0.184 0.216 0.391 0.411 0.617 0.581 0.109 0.091 0.182 0.218 0.309 0.309-0.275 0.646-0.357 1.359-0.236 2.052-8e-3 0.163-8e-3 0.327 0 0.49l0.127 0.399c0.149 0.452 0.384 0.871 0.69 1.234 0 0.091 0.218 0.146 0.309 0.236 0.188 0.215 0.408 0.399 0.653 0.545-0.353 0.873-0.353 1.85 0 2.724l0.146 0.327c0.072 0.119 0.151 0.234 0.236 0.345 0.157 0.291 0.353 0.56 0.581 0.799 0.164 0.126 0.341 0.235 0.526 0.327 0.185 0.149 0.386 0.277 0.6 0.381-0.146 0.702-0.069 1.432 0.218 2.088 1.897 0.986 3.123 2.911 3.214 5.048l0.163 0.2c0.56 0.786 1.421 1.306 2.379 1.434-0.065 0.895 0.243 1.776 0.854 2.434l0.326 0.345c0.634 0.66 1.501 1.045 2.415 1.071 0.026 0.897 0.42 1.744 1.09 2.343l0.309 0.271c0.712 0.604 1.629 0.909 2.56 0.854 0.117 0.895 0.605 1.698 1.344 2.216l0.399 0.271c0.739 0.502 1.644 0.697 2.524 0.545 0.283 0.883 0.895 1.623 1.706 2.07l0.272 0.146c0.823 0.465 1.799 0.576 2.706 0.309 0.388 0.84 1.093 1.493 1.961 1.815l0.254 0.091c0.901 0.4 1.931 0.4 2.832 0 0.455 0.794 1.217 1.365 2.106 1.58l0.509 0.127c0.912 0.167 1.854-0.021 2.633-0.526 0.547 0.742 1.387 1.212 2.306 1.289h0.509c0.937 0.068 1.859-0.262 2.542-0.908 0.601 0.602 1.419 0.936 2.27 0.926h1.144c0.937-0.087 1.8-0.544 2.396-1.271 0.74 0.546 1.681 0.744 2.579 0.544l0.453-0.108c0.893-0.207 1.668-0.754 2.161-1.525 0.846 0.391 1.813 0.43 2.688 0.109l0.29-0.109c0.76-0.271 1.401-0.798 1.815-1.488 0.896 1.318 2.159 2.348 3.632 2.959l3.632-2.143c0.387-0.811 0.311-1.767-0.2-2.506l4.775-2.796 39.146-23.023c0.4 0.8 1.196 1.326 2.088 1.38l3.632-2.143c0.174-1.396-0.033-2.814-0.6-4.103l1.181 0.29 17.976-12.528s0.708-0.418 0.363-0.98l-0.309-0.545-0.527-0.89-0.309-0.526c-0.345-0.563-1.053-0.163-1.053-0.163l-19.683 9.604-0.364 1z"/>
		<path d="m330.46 597.53c-0.056-0.087-0.104-0.179-0.146-0.272-2.633-5.084-5.956-10.622-9.441-16.342-10.478-16.886-9.678-47.408-9.678-47.408 1.343-0.256 2.573-0.922 3.522-1.906l-18.992 1.652c0.297 0.104 0.6 0.189 0.907 0.254 0 0 0.799 30.522-9.659 47.408-4.136 6.44-7.906 13.109-11.294 19.973-4.702 9.369-11.402 27.236 28.253 35.497 42.015-8.86 31.992-28.271 27.435-37.076l-0.907-1.78z"/>
		<path d="m145.26 553.12 17.976 12.529 1.18-0.291c-0.565 1.289-0.772 2.707-0.599 4.104l3.631 2.143c0.893-0.055 1.688-0.58 2.088-1.38l39.147 23.023 4.774 2.796c-0.511 0.739-0.587 1.695-0.199 2.506l3.631 2.143c1.474-0.612 2.735-1.641 3.632-2.96 0.415 0.691 1.057 1.218 1.815 1.489l0.291 0.108c0.875 0.32 1.841 0.281 2.688-0.108 0.493 0.771 1.269 1.318 2.16 1.525l0.454 0.108c0.897 0.2 1.838 2e-3 2.578-0.545 0.598 0.727 1.46 1.185 2.396 1.271h0.709c0.85 9e-3 1.668-0.325 2.27-0.926 0.682 0.646 1.604 0.976 2.542 0.907h0.508c0.919-0.077 1.76-0.547 2.307-1.289 0.777 0.506 1.72 0.694 2.632 0.526l0.509-0.127c0.89-0.214 1.651-0.785 2.106-1.579 0.901 0.4 1.931 0.4 2.832 0l0.255-0.091c0.867-0.323 1.572-0.976 1.961-1.816 0.906 0.269 1.883 0.157 2.705-0.309l0.272-0.146c0.813-0.446 1.423-1.187 1.707-2.069 0.88 0.151 1.784-0.044 2.523-0.545l0.399-0.272c0.739-0.517 1.227-1.32 1.344-2.215 0.932 0.055 1.848-0.251 2.561-0.854l0.309-0.272c0.669-0.598 1.063-1.445 1.089-2.342 0.914-0.026 1.782-0.411 2.415-1.071l0.327-0.346c0.609-0.657 0.919-1.538 0.854-2.433 0.957-0.128 1.818-0.647 2.378-1.435l0.164-0.199c0.583-0.76 0.832-1.723 0.689-2.67 0.915-0.232 1.702-0.812 2.197-1.615l0.163-0.255c0.465-0.77 0.577-1.701 0.309-2.56 0.882-0.322 1.604-0.973 2.016-1.816l0.146-0.326c0.354-0.874 0.354-1.851 0-2.724 0.792-0.432 1.385-1.154 1.652-2.016l0.127-0.399c0.262-0.835 0.17-1.74-0.254-2.506 0.771-0.493 1.318-1.269 1.524-2.16v-0.363c0.215-0.874 0.085-1.798-0.362-2.578 0.719-0.557 1.194-1.37 1.325-2.27v-0.4c0.215-0.925 0.038-1.897-0.49-2.687 0.441-0.452 0.749-1.018 0.89-1.635 0.097-0.25 0.158-0.513 0.182-0.78v-0.399c0.026-0.939-0.327-1.849-0.98-2.523 0.603-0.758 0.865-1.73 0.727-2.688v-0.309c-0.11-0.937-0.596-1.788-1.344-2.36 0.476-0.833 0.587-1.824 0.309-2.742v-0.29c-0.259-0.903-0.857-1.672-1.671-2.143 0.32-0.836 0.32-1.761 0-2.597l-0.199-0.49c-0.299-0.594-0.767-1.087-1.344-1.416l-6.863 0.599c0.421 0.674 1.063 1.181 1.815 1.435-0.231 0.831-0.168 1.717 0.182 2.506 0.296 0.762 0.839 1.401 1.543 1.815-0.278 0.699-0.323 1.471-0.127 2.197l0.146 0.49c0.191 0.724 0.62 1.363 1.217 1.815-0.372 0.656-0.531 1.411-0.454 2.161v0.49c0.107 0.719 0.438 1.386 0.944 1.906-0.479 0.585-0.748 1.314-0.763 2.07v0.417c1e-3 0.332 0.05 0.662 0.145 0.98 0.097 0.425 0.275 0.825 0.527 1.181-0.561 0.538-0.925 1.247-1.035 2.016v0.399c-0.117 0.778 0.036 1.573 0.436 2.251-0.632 0.484-1.08 1.17-1.271 1.943l-0.091 0.417c-0.207 0.841-0.091 1.729 0.326 2.487-0.766 0.486-1.337 1.226-1.615 2.089-0.235 0.762-0.204 1.582 0.09 2.324-0.662 0.362-1.19 0.929-1.507 1.615l-0.182 0.418c-0.318 0.759-0.37 1.604-0.145 2.396-0.83 0.297-1.534 0.866-1.998 1.616 0.319 1.593-0.714 3.143-2.307 3.461-0.012 3e-3 -0.023 5e-3 -0.035 7e-3l-0.327 0.436c-0.476 0.658-0.706 1.461-0.653 2.271-0.872 0.1-1.679 0.513-2.27 1.161-0.613 0.628-0.964 1.466-0.98 2.343-0.89 0.012-1.746 0.34-2.415 0.926-0.626 0.554-1.032 1.314-1.144 2.143-0.872-0.078-1.742 0.16-2.451 0.672-0.651 0.434-1.137 1.073-1.381 1.815-0.758-0.132-1.538-4e-3 -2.215 0.363l-0.436 0.236c-0.65 0.368-1.165 0.935-1.471 1.616-0.718-0.245-1.497-0.245-2.215 0l-0.49 0.199c-0.718 0.297-1.313 0.828-1.689 1.507-0.765-0.378-1.64-0.475-2.469-0.271-0.838 0.176-1.581 0.654-2.088 1.343-0.686-0.49-1.52-0.729-2.36-0.672-0.845 0.051-1.641 0.413-2.233 1.018-0.619-0.577-1.41-0.935-2.252-1.018-0.848-0.072-1.693 0.167-2.379 0.672-0.518-0.669-1.247-1.143-2.069-1.343-0.763-0.168-1.559-0.085-2.27 0.235-0.438-0.649-1.075-1.14-1.816-1.397l-0.472-0.164c-0.436-0.158-0.9-0.22-1.361-0.182 0.308-0.941 0.395-1.942 0.254-2.923l-3.632-2.143c-0.886 0.061-1.673 0.586-2.069 1.38l-4.758-2.796-39.219-22.987c0.497-0.737 0.572-1.681 0.199-2.487l-3.631-2.125c-1.327 0.506-2.489 1.366-3.359 2.488l-0.309-1.181-19.664-9.587s-0.708-0.399-1.053 0.163l-0.31 0.527-0.526 0.89-0.309 0.544c-0.327 0.569 0.381 0.986 0.381 0.986z"/>
		<path d="m265.71 358.58c2.528-0.204 4.744 1.681 4.947 4.21 0.017 0.2 0.02 0.401 0.01 0.602 0 4.523 3.666 8.189 8.188 8.189h0.019 19.21c2.233 0 4.194 2.959 2.233 4.866-1.961 1.906-2.179 8.516-2.179 17.213 0 0-5.229 2.415-5.229 7.607 0.056 2.078 0.953 4.044 2.487 5.447l18.429-1.598c0.763-1.134 1.18-2.465 1.199-3.831 0-5.193-5.229-7.608-5.229-7.608 0-8.697-0.236-15.288-2.197-17.213s0-4.866 2.27-4.866h19.192c4.522 0.01 8.197-3.648 8.207-8.17v-0.019c-0.13-2.534 1.819-4.692 4.354-4.822 0.207-0.011 0.415-7e-3 0.621 0.01 1.816 0 3.232-0.127 3.232-0.98s-1.253-0.962-1.253-0.962h-34.299c0-2.015-0.727-5.193 1.997-7.607 2.724-2.415 0.526-4.285-0.545-5.32-1.07-1.035-4.684-4.158 0.4-5.447 3.085-0.997 5.378-3.604 5.974-6.791v-4.539c0-2.016-0.272-2.796-1.726-2.796h-24.167c-1.452 0-1.815 0.781-1.815 2.796v4.539c0.635 3.167 2.946 5.735 6.028 6.7 5.103 1.361 1.452 4.466 0.399 5.447s-3.25 2.923-0.526 5.32c2.724 2.396 1.979 5.592 1.979 7.608h-34.189s-1.271 0.127-1.271 0.962c0 0.836 1.452 1.053 3.25 1.053z"/>
		<path d="m352.97 401.69 7.045-0.617c0.275-0.781 0.275-1.634 0-2.415 0.798-0.376 1.439-1.018 1.815-1.815 0.401-0.808 0.467-1.741 0.182-2.597 0.854-0.338 1.548-0.987 1.942-1.816 0.416-0.799 0.52-1.725 0.291-2.596 0.866-0.288 1.592-0.891 2.033-1.688 0.451-0.759 0.595-1.663 0.399-2.524 0.874-0.235 1.635-0.777 2.143-1.525 0.468-0.707 0.673-1.554 0.581-2.396 0.856-0.168 1.623-0.639 2.161-1.326 0.572-0.671 0.87-1.534 0.835-2.415 0.88-0.082 1.7-0.482 2.306-1.125 0.596-0.613 0.956-1.417 1.018-2.27 0.861-0.074 1.691-0.361 2.414-0.835 0.637-0.494 1.07-1.205 1.217-1.997 0.846 0.113 1.704-0.067 2.434-0.509 0.699-0.41 1.232-1.053 1.507-1.815 0.729 0.188 1.499 0.137 2.197-0.146l0.399-0.163c0.776-0.299 1.42-0.866 1.815-1.598 0.768 0.373 1.642 0.462 2.47 0.254 0.717-0.187 1.354-0.601 1.815-1.18 0.636 0.39 1.38 0.568 2.124 0.508h0.509c0.739-0.085 1.433-0.403 1.979-0.908 0.595 0.49 1.337 0.766 2.106 0.781h0.399c0.78 0.016 1.544-0.22 2.179-0.672 0.538 0.56 1.247 0.924 2.016 1.035h0.49c0.765 0.091 1.537-0.076 2.197-0.472 0.454 0.696 1.134 1.215 1.925 1.471 0.687 0.208 1.419 0.208 2.106 0 0.28 0.644 0.748 1.188 1.343 1.562l0.4 0.236c0.636 0.389 1.382 0.561 2.124 0.49 0.148 0.791 0.542 1.515 1.126 2.07 0.531 0.54 1.228 0.885 1.979 0.98 2e-3 0.741 0.23 1.463 0.654 2.07l0.235 0.327c0.45 0.615 1.087 1.067 1.816 1.289-0.148 0.727-0.046 1.481 0.29 2.143l0.236 0.49c0.366 0.699 0.963 1.25 1.688 1.562-0.291 0.822-0.291 1.72 0 2.542 0.278 0.805 0.831 1.486 1.562 1.925-0.396 0.771-0.519 1.655-0.345 2.505 0.162 0.787 0.592 1.493 1.216 1.998-0.403 0.677-0.575 1.467-0.49 2.251v0.49c0.12 0.755 0.483 1.45 1.035 1.979l5.247-0.472c0.531-0.727 0.753-1.634 0.618-2.524v-0.309c-0.125-0.903-0.586-1.727-1.289-2.306 0.47-0.752 0.632-1.656 0.453-2.524-0.045-0.167-0.081-0.337-0.108-0.509-0.201-0.861-0.755-1.599-1.525-2.033 0.431-0.831 0.502-1.802 0.2-2.688l-0.128-0.417c-0.307-0.869-0.966-1.568-1.815-1.925 0.334-0.93 0.262-1.958-0.199-2.833l-0.128-0.236c-0.403-0.863-1.146-1.52-2.052-1.816 0.175-0.934-0.042-1.899-0.599-2.669l-0.218-0.327c-0.556-0.783-1.41-1.302-2.36-1.435-9e-3 -0.929-0.373-1.819-1.018-2.488l-0.399-0.381c-0.695-0.646-1.634-0.963-2.578-0.872-0.181-0.985-0.775-1.845-1.634-2.36l-0.291-0.182c-0.84-0.523-1.861-0.668-2.814-0.399-0.401-0.864-1.145-1.522-2.052-1.816l-0.417-0.127c-0.897-0.317-1.89-0.217-2.705 0.272-0.568-0.831-1.47-1.375-2.47-1.489h-0.291c-0.909-0.141-1.838 0.088-2.578 0.636-0.642-0.648-1.504-1.03-2.415-1.071h-0.399c-0.921-0.027-1.815 0.313-2.487 0.944-0.741-0.595-1.687-0.875-2.633-0.781h-0.308c-0.937 0.087-1.8 0.544-2.396 1.271-0.776-0.427-1.687-0.537-2.542-0.309l-0.418 0.091c-0.906 0.212-1.676 0.809-2.106 1.634-0.889-0.399-1.906-0.399-2.796 0l-0.327 0.127c-0.878 0.351-1.573 1.046-1.924 1.925-0.878-0.229-1.81-0.105-2.597 0.345l-0.473 0.272c-0.8 0.493-1.349 1.307-1.507 2.233-0.971-0.129-1.953 0.139-2.724 0.745l-0.218 0.163c-0.707 0.57-1.137 1.417-1.18 2.324-0.926-4e-3 -1.815 0.362-2.47 1.017l-0.327 0.327c-0.619 0.647-0.946 1.52-0.907 2.415-0.891 0.096-1.71 0.532-2.288 1.216l-0.327 0.417c-0.552 0.69-0.801 1.575-0.689 2.451-0.884 0.18-1.661 0.702-2.161 1.453 0 0-0.254 0.363-0.254 0.381-0.496 0.721-0.668 1.617-0.472 2.47-0.872 0.242-1.615 0.815-2.07 1.598l-0.236 0.381c-0.429 0.755-0.54 1.65-0.309 2.487-0.83 0.283-1.519 0.875-1.925 1.652l-0.235 0.472c-0.384 0.761-0.448 1.643-0.182 2.451-0.788 0.337-1.431 0.941-1.816 1.707l-0.199 0.454c-0.363 0.783-0.396 1.68-0.091 2.488-0.815 0.351-1.465 1-1.815 1.815l-0.218 0.49c-0.309 0.794-0.309 1.675 0 2.47-0.112 0.051-0.222 0.106-0.327 0.166z"/>
		<path d="m177.21 405.52c-0.629 0.755-0.936 1.727-0.854 2.705 0.081 0.88 0.489 1.696 1.145 2.288-0.502 0.726-0.71 1.615-0.581 2.487v0.399c0.148 0.927 0.649 1.76 1.397 2.324-0.237 0.378-0.404 0.797-0.49 1.235l6.628-0.581c-0.193-0.641-0.58-1.205-1.108-1.616 0.437-0.705 0.61-1.541 0.49-2.36v-0.418c-0.123-0.8-0.521-1.531-1.125-2.069 0.471-0.673 0.689-1.489 0.617-2.307v-0.399c-0.06-0.8-0.424-1.547-1.017-2.088 0.526-0.65 0.798-1.47 0.763-2.306v-0.399c-0.023-0.8-0.34-1.563-0.89-2.143 0.579-0.608 0.909-1.412 0.926-2.252v-0.309c0.035-0.81-0.201-1.609-0.672-2.27 0.551-0.542 0.908-1.25 1.017-2.016v-0.49c0.096-0.777-0.091-1.563-0.526-2.215 0.65-0.506 1.101-1.227 1.271-2.034v-0.272c0.194-0.786 0.104-1.616-0.254-2.342 0.656-0.431 1.148-1.071 1.398-1.815l0.127-0.363c0.238-0.731 0.238-1.52 0-2.251 0.656-0.317 1.191-0.84 1.525-1.489l0.254-0.49c0.316-0.667 0.406-1.42 0.254-2.143 0.733-0.213 1.373-0.667 1.815-1.289l0.236-0.327c0.432-0.603 0.66-1.328 0.654-2.07 0.75-0.096 1.447-0.441 1.979-0.98l0.182-0.182c0.536-0.48 0.91-1.114 1.071-1.815 0.701 0.06 1.403-0.113 1.997-0.49l0.399-0.236c0.597-0.375 1.061-0.927 1.326-1.58 0.689 0.226 1.434 0.226 2.124 0l0.436-0.236c0.73-0.22 1.368-0.673 1.816-1.29 0.622 0.334 1.33 0.474 2.033 0.4h0.509c0.761-0.114 1.459-0.486 1.979-1.053 0.628 0.481 1.406 0.726 2.197 0.69h0.399c0.772-0.01 1.515-0.3 2.088-0.817 0.544 0.526 1.246 0.858 1.997 0.944h0.509c0.74 0.059 1.48-0.126 2.106-0.526 0.491 0.602 1.168 1.023 1.925 1.198h0.381c0.727 0.179 1.492 0.115 2.179-0.182 0.391 0.637 0.967 1.138 1.652 1.435l0.399 0.164c0.693 0.279 1.461 0.317 2.179 0.109 0.291 0.759 0.828 1.398 1.525 1.815l0.218 0.127c0.737 0.456 1.618 0.618 2.47 0.454 0.15 0.778 0.56 1.482 1.162 1.998h0.145c0.612 0.483 1.363 0.757 2.143 0.78 0.101 0.78 0.451 1.506 0.999 2.07l0.236 0.236c0.556 0.568 1.283 0.938 2.069 1.053 5e-3 0.825 0.301 1.623 0.836 2.251l0.163 0.182c0.489 0.652 1.199 1.104 1.997 1.271-0.078 0.801 0.127 1.604 0.581 2.27l0.2 0.291c0.455 0.679 1.127 1.185 1.906 1.435-0.137 0.802 0.019 1.626 0.436 2.324l0.164 0.309c0.411 0.71 1.051 1.261 1.815 1.561-0.173 0.819-0.058 1.672 0.326 2.415l0.128 0.236c0.367 0.773 1.017 1.378 1.815 1.688-0.22 0.823-0.143 1.697 0.218 2.469l0.127 0.272c0.333 0.785 0.931 1.427 1.688 1.816-0.261 0.824-0.209 1.717 0.146 2.506l0.109 0.254c0.306 0.789 0.896 1.437 1.652 1.815-0.308 0.801-0.308 1.688 0 2.487l0.108 0.291c0.307 0.777 0.879 1.421 1.616 1.815-0.282 0.762-0.282 1.6 0 2.36-6e-3 0.073-6e-3 0.146 0 0.218l6.609-0.563c0.173-0.63 0.173-1.295 0-1.925-0.287-0.832-0.877-1.525-1.652-1.942 0.3-0.796 0.3-1.674 0-2.47l-0.182-0.454c-0.307-0.789-0.896-1.437-1.652-1.815 0.293-0.804 0.293-1.685 0-2.487l-0.218-0.49c-0.314-0.797-0.917-1.445-1.688-1.816 0.27-0.824 0.218-1.719-0.146-2.506l-0.2-0.454c-0.378-0.767-1.023-1.368-1.815-1.689 0.22-0.823 0.143-1.697-0.218-2.469l-0.254-0.472c-0.389-0.746-1.033-1.326-1.816-1.634 0.184-0.852 0.055-1.741-0.363-2.505l-0.235-0.381c-0.438-0.768-1.152-1.339-1.997-1.598 0.125-0.86-0.062-1.736-0.527-2.47 0 0-0.254-0.363-0.254-0.381-0.512-0.731-1.274-1.248-2.143-1.453 0.083-0.88-0.178-1.758-0.727-2.451l-0.326-0.418c-0.561-0.668-1.351-1.102-2.216-1.216-2e-3 -0.901-0.354-1.767-0.98-2.415l-0.326-0.327c-0.627-0.63-1.473-0.995-2.36-1.017-0.125-1.913-1.715-3.399-3.632-3.395-0.215 0.025-0.428 0.067-0.636 0.127-0.208-0.911-0.77-1.701-1.562-2.197l-0.472-0.272c-0.842-0.489-1.853-0.594-2.778-0.291-0.372-0.957-1.12-1.718-2.069-2.106-0.868-0.382-1.856-0.382-2.724 0-0.485-0.801-1.27-1.376-2.179-1.598l-0.418-0.091c-0.95-0.232-1.954-0.047-2.76 0.508-0.616-0.799-1.537-1.306-2.542-1.398-1.119-0.109-2.226 0.307-2.996 1.125-0.737-0.692-1.712-1.075-2.724-1.071-0.965 0.042-1.873 0.467-2.523 1.181-0.801-0.585-1.796-0.839-2.778-0.708-0.972 0.13-1.849 0.648-2.434 1.435-0.843-0.454-1.837-0.533-2.741-0.218l-0.399 0.127c-0.981 0.356-1.762 1.117-2.143 2.088-1.021-0.305-2.125-0.16-3.032 0.4-0.838 0.521-1.428 1.359-1.634 2.324-0.947-0.061-1.879 0.267-2.579 0.908l-0.381 0.381c-0.664 0.657-1.037 1.553-1.035 2.488-0.942 0.142-1.788 0.659-2.342 1.435l-0.236 0.327c-0.58 0.808-0.785 1.827-0.563 2.796-0.946 0.294-1.741 0.945-2.216 1.815-0.448 0.851-0.527 1.849-0.218 2.76-0.85 0.394-1.505 1.114-1.815 1.998l-0.146 0.417c-0.295 0.858-0.236 1.799 0.163 2.615-0.737 0.496-1.267 1.246-1.488 2.106-0.027 0.171-0.064 0.341-0.109 0.509-0.19 0.924-1e-3 1.886 0.526 2.669-0.774 0.603-1.272 1.494-1.38 2.469-0.141 0.91 0.089 1.838 0.636 2.578-0.621 0.676-0.948 1.571-0.907 2.488v0.509c-0.038 0.946 0.316 1.866 0.98 2.541-0.672 0.732-1.036 1.694-1.018 2.688 0.047 0.92 0.451 1.789 1.13 2.414z"/>
	</g>
	<g fill="#FFD05B">
		<path d="m150.23 507.78 4.467-0.381c2.306-0.218 3.45-1.58 3.45-4.122v-41.87c0-2.542-1.308-3.632-3.904-3.468l-4.104 0.345c-2.055-0.064-3.772 1.549-3.837 3.604-6e-3 0.186 2e-3 0.37 0.024 0.555v41.761c0 2.65 1.307 3.794 3.904 3.576z"/>
		<path d="m113.66 510.98 4.448-0.381c2.006-0.031 3.605-1.684 3.574-3.688-3e-3 -0.145-0.014-0.29-0.033-0.434v-41.925c0-2.541-1.308-3.631-3.922-3.468l-4.086 0.346c-2.064-0.063-3.789 1.559-3.853 3.624-6e-3 0.178 2e-3 0.356 0.021 0.533v41.87c-0.071 2.597 1.237 3.759 3.851 3.523z"/>
		<path d="m573.27 404.94 19.519-48.534-115.26 10.095c-1.713-45.581 0.272-91.227 5.938-136.49l0.29-2.016-1.452-1.434c-36.369-35.225-123.16-59.792-178.34-59.792-55.18 0-141.97 24.566-178.28 59.918l-1.453 1.435 0.291 2.015c0.199 1.398 14.525 103.93 0.218 198.2l-79.729 6.954-3.631 0.309v113.48l55.542 19.973-64.967-12.2v-80.2l-31.865 3.958 19.882 51.512-19.973 57.703 123.07-11.348 3.522 1.271c3.214 4.122 6.664 8.316 10.477 12.564 28.344 31.666 80.219 71.703 166.39 82.688h1.017c86.174-10.984 137.99-51.021 166.39-82.688 30.867-34.371 40.999-65.782 41.417-67.181l0.526-1.634-0.836-1.489c-2.414-4.412-4.63-9.079-6.754-13.727l45.593-3.995 3.631-0.326v-113.03h-0.235l-55.906-15.688 64.095 10.259 0.436 74.571 32.429-1.961-21.99-53.182zm-85.52-28.924 5.446 1.543v18.593l-5.446 0.472v-20.608zm-3.469-0.98v21.897l-4.812 0.417c-0.726-8.116-1.289-16.196-1.706-24.185l6.518 1.871zm-7.117 46.736 9.441 30.739v-31.538l8.752-0.763v65.365l-8.752 0.763v-13.073l-9.369-28.942v42.778l-8.733 0.763v-65.366l8.661-0.726zm-20.445-74.843c-81.543-60.318-219.43-61.498-305.49-2.524 0.353-36.297-1.588-72.581-5.811-108.63 32.683-26.292 105.17-49.024 158.55-49.024s125.77 22.806 158.55 49.024c-4.331 36.889-6.266 74.019-5.793 111.16zm0.091 5.029c0.327 15.252 1.126 31.122 2.597 47.209l-28.234 2.469-6.7 0.6-67.998 5.919-5.646 0.49h-1.09l-40.526 3.522-10.331 0.908-38.548 3.358-6.354 0.563-62.751 5.447-17.885 1.562-28.089 2.415c3.557-25.589 5.521-51.373 5.883-77.205 85.483-60.263 225.02-58.974 305.67 2.76v-0.017zm3.431 71.285v65.365l-8.733 0.763v-65.365l8.733-0.763zm-15.106 66.728-8.279 0.726-5.72-25.892-5.284 0.472v26.383l-8.733 0.763v-65.366l17.104-1.507c6.657-0.581 9.992 2.862 10.004 10.331v16.105c0 5.701-1.725 9.46-5.174 11.275l6.082 26.71zm-35.751-34.499v7.917l-11.476 0.998v21.789l12.928-1.126v7.916l-21.661 1.816v-65.366l21.661-1.815v7.898l-12.928 1.126v19.846l11.476-0.999zm-50.694-15.415v-7.917l25.42-2.233v7.935l-8.371 0.727v57.395l-8.752 0.763v-57.413l-8.297 0.743zm-23.279 35.533v23.931l-8.733 0.763v-54.163c0-7.457 3.486-11.494 10.459-12.111l6.555-0.563c6.972-0.617 10.458 2.809 10.458 10.277v54.126l-8.733 0.763v-23.913l-10.006 0.89zm-27.761-31.013-1.725 0.164c-2.306 0.199-3.468 1.562-3.468 4.121v41.853c0 2.542 1.162 3.631 3.468 3.522l2.179-0.2c2.306-0.199 3.468-1.562 3.468-4.121v-3.632l8.733-0.763v4.177c0 7.408-3.492 11.414-10.477 12.02l-5.628 0.49c-6.973 0.617-10.465-2.778-10.478-10.186v-43.105c0-7.408 3.492-11.415 10.478-12.02l5.628-0.49c6.997-0.618 10.489 2.777 10.477 10.186v7.372l-8.733 0.763v-6.736c-1e-3 -2.561-1.308-3.705-3.922-3.415zm-55.688 32.684v29.668l-8.733 0.763v-65.365l8.733-0.781v27.763l10.73-0.944v-27.835l8.752-0.763v65.366l-8.752 0.762v-29.704l-10.73 1.07zm-35.207 8.824v23.858l-8.751 0.763v-54.199c0-7.457 3.492-11.493 10.477-12.111l6.555-0.581c6.972-0.604 10.458 2.821 10.458 10.277v54.145l-8.733 0.78v-23.949l-10.006 1.017zm-13.291 25.093-8.733 0.763-10.895-30.994v-0.546l9.079-33.645 8.007-0.709-9.188 33.301 11.73 31.83zm-20.1-63.55v65.365l-8.752 0.763v-65.547l8.752-0.581zm-35.315 3.087 8.37-0.727c6.973-0.617 10.459 2.809 10.459 10.277v43.032c0 7.408-3.517 11.414-10.55 12.02l-8.188 0.727c-7.045 0.617-10.562-2.772-10.55-10.168v-43.142c0-7.517 3.486-11.578 10.459-12.184v0.165zm24.894 86.935v-0.127l273.59-23.949 37.712-3.305c2.106 5.103 4.321 10.114 6.736 14.926-9.95 24.076-55.034 112.16-187.02 129.82-109.31-14.653-159.35-78.693-178.79-113.32l47.772-4.05zm-44.467-308.18c34.534-33.536 118.82-58.702 175.49-58.702s140.88 25.166 175.49 58.702c0 0-11.875 82.434-4.05 168.24l-12.146 1.054c-6.355-69.106 0-135.69 3.231-162.45l0.255-2.197-1.726-1.398c-33.771-27.09-107.53-49.968-161.05-49.968s-127.28 22.878-161.05 49.968l-1.725 1.398 0.272 2.197c3.631 30.377 11.348 112.07-0.127 190.49l-12.42 1.09c14.401-95.543-0.433-198.42-0.433-198.42zm-72.193 320.56-5.157-1.961 5.211-0.454-0.054 2.415zm8.879 3.214-5.447-1.961v-3.904l5.447-0.472v6.337zm8.878 3.232-5.446-1.961v-7.916l5.446-0.473v10.35zm8.862 3.213-5.447-1.961v-11.911l5.447-0.472v14.344zm8.878 3.233-5.447-1.961v-15.924l5.447-0.473v18.358zm1.435-42.252-8.734 0.781v-29.669l-10.73 0.926v29.669l-8.733 0.763v-65.366l8.733-0.763v27.744l10.73-0.926v-27.726l8.734-0.763v65.33zm7.444 45.392-5.447-1.961v-19.973l5.447-0.472v22.406zm0.29-57.231v-42.978c0-7.456 3.486-11.487 10.459-12.093l8.37-0.744c6.984-0.605 10.477 2.82 10.477 10.277v43.014c0 7.384-3.522 11.391-10.567 12.021l-8.188 0.708c-6.985 0.642-10.483-2.736-10.495-10.132l-0.056-0.073zm8.571 60.464-5.447-1.961v-22.515c1.543 3.014 3.359 6.318 5.447 9.822v14.654zm3.467 1.253v-10.259c2.705 4.321 5.684 8.824 9.079 13.581l-9.079-3.322zm395.44-46.555s-40.073 126.06-204.52 147.07c-124.47-15.869-177.61-91.857-196.1-127.92l12.964-1.126c19.483 35.661 70.142 101.82 182.64 116.9h1.052c133.09-17.812 179.23-105.73 190.2-132.26l0.709-1.688-0.817-1.635c-2.197-4.357-4.213-8.879-6.138-13.49l12.565-1.09c2.342 5.284 4.793 10.404 7.499 15.307l-0.054-0.073zm23.604-135.38 10.894 3.123-10.894 0.944v-4.067zm-8.879-2.542 5.446 1.543v5.447l-5.446 0.472v-7.462zm-8.879-2.523 5.447 1.543v8.679l-5.447 0.472v-10.694zm-8.861-2.542 5.447 1.543v11.984l-5.447 0.472v-13.999zm-2.469 49.678c0-7.457 3.371-11.481 10.113-12.074l5.992-0.527c7.408-0.642 11.111 2.827 11.111 10.404v7.1l-8.733 0.763v-5.811c0-3.159-1.253-4.63-3.74-4.412l-2.179 0.182c-2.542 0.23-3.813 1.919-3.813 5.065v40.037c0 3.159 1.271 4.63 3.813 4.412l5.919-0.526v-16.015l-4.558 0.399v-7.844l13.291-1.162v31.847l-17.104 1.489c-6.742 0.593-10.113-2.778-10.113-10.113v-43.214zm-0.962-50.586v15.289l-5.447 0.472v-17.304l5.447 1.543z"/>
		<path d="m226.76 455.47c0-2.561-1.271-3.722-3.831-3.504l-2.36 0.218c-2.002-0.122-3.724 1.401-3.846 3.403-0.016 0.252-5e-3 0.505 0.032 0.755v21.788l10.005-0.89v-21.77z"/>
		<path d="m345.42 445.03c0-2.542-1.271-3.631-3.831-3.486l-2.36 0.2c-2.055-0.064-3.772 1.549-3.837 3.604-6e-3 0.186 2e-3 0.37 0.023 0.555v21.788l10.005-0.871v-21.79z"/>
		<path d="m431.59 433.68-5.738 0.508v23.604l5.738-0.509c2.597-0.235 3.903-1.924 3.903-5.065v-14.108c0-3.215-1.306-4.667-3.903-4.43z"/>
	</g>
</svg>
